<svg xmlns="http://www.w3.org/2000/svg" xmlns:xlink="http://www.w3.org/1999/xlink" width="500" zoomAndPan="magnify" viewBox="0 0 375 374.999991" height="500" preserveAspectRatio="xMidYMid meet" version="1.0"><defs><clipPath id="b481516cbb"><path d="M 169 12.75 L 364 12.75 L 364 362.25 L 169 362.25 Z M 169 12.75 " clip-rule="nonzero"/></clipPath><clipPath id="2f4f7552c5"><path d="M 10 34 L 158 34 L 158 299 L 10 299 Z M 10 34 " clip-rule="nonzero"/></clipPath><clipPath id="acabc4dafe"><path d="M 45.28125 34.019531 C 41.933594 50.824219 50.335938 68.152344 62.433594 80.25 C 74.53125 92.347656 90.011719 100.402344 104.792969 109.046875 C 119.578125 117.695312 134.324219 127.527344 143.632812 141.925781 C 151.722656 154.441406 155 169.433594 156.707031 184.253906 C 158.765625 202.171875 158.488281 221.035156 152.769531 237.945312 C 148.621094 227.765625 143.214844 218 137.042969 208.902344 C 124.945312 190.980469 110.058594 175.152344 95.242188 159.429688 C 77.914062 141.054688 60.621094 122.679688 43.292969 104.308594 C 61.214844 137.917969 89 164.972656 112.5 194.992188 C 136 224.976562 156.011719 260.78125 153.816406 298.820312 C 152.070312 279.363281 136.277344 263.917969 119.160156 254.503906 C 102.039062 245.09375 82.828125 239.863281 65.917969 230.03125 C 33.984375 211.34375 12.507812 175.917969 10.832031 138.996094 C 9.160156 101.65625 26.207031 66.164062 45.28125 34.019531 Z M 45.28125 34.019531 " clip-rule="nonzero"/></clipPath><linearGradient x1="-1204.20996" gradientTransform="matrix(-0.348651, 0, 0, 0.348651, -335.551597, 12.75083)" y1="60.999967" x2="-1204.20996" gradientUnits="userSpaceOnUse" y2="820.499983" id="6cc50c6973"><stop stop-opacity="1" stop-color="rgb(93.852234%, 61.347961%, 35.595703%)" offset="0"/><stop stop-opacity="1" stop-color="rgb(93.733215%, 61.209106%, 35.441589%)" offset="0.125"/><stop stop-opacity="1" stop-color="rgb(93.495178%, 60.932922%, 35.131836%)" offset="0.25"/><stop stop-opacity="1" stop-color="rgb(93.257141%, 60.656738%, 34.823608%)" offset="0.375"/><stop stop-opacity="1" stop-color="rgb(93.02063%, 60.379028%, 34.513855%)" offset="0.5"/><stop stop-opacity="1" stop-color="rgb(92.782593%, 60.102844%, 34.205627%)" offset="0.625"/><stop stop-opacity="1" stop-color="rgb(92.544556%, 59.82666%, 33.8974%)" offset="0.75"/><stop stop-opacity="1" stop-color="rgb(92.308044%, 59.550476%, 33.587646%)" offset="0.875"/><stop stop-opacity="1" stop-color="rgb(92.070007%, 59.272766%, 33.279419%)" offset="1"/></linearGradient></defs><rect x="-37.5" width="450" fill="#ffffff" y="-37.499999" height="449.999989" fill-opacity="1"/><rect x="-37.5" width="450" fill="#ffffff" y="-37.499999" height="449.999989" fill-opacity="1"/><g clip-path="url(#b481516cbb)"><path fill="#f4a261" d="M 318.132812 12.75 C 322.5625 34.925781 311.476562 57.796875 295.507812 73.765625 C 279.539062 89.769531 259.109375 100.367188 239.617188 111.769531 C 220.09375 123.167969 200.605469 136.171875 188.367188 155.175781 C 177.699219 171.699219 173.339844 191.503906 171.109375 211.027344 C 168.320312 234.738281 168.703125 259.597656 176.234375 281.910156 C 181.707031 268.453125 188.855469 255.585938 196.976562 243.558594 C 212.945312 219.882812 232.609375 199 252.167969 178.222656 C 275.042969 153.953125 297.878906 129.722656 320.75 105.457031 C 297.074219 149.804688 260.398438 185.578125 229.402344 225.148438 C 198.40625 264.757812 171.980469 312.035156 174.875 362.238281 C 177.175781 336.542969 198.023438 316.148438 220.652344 303.734375 C 243.277344 291.324219 268.625 284.386719 290.90625 271.414062 C 333.058594 246.871094 361.402344 200.082031 363.597656 151.339844 C 365.828125 102.039062 343.34375 55.148438 318.132812 12.75 Z M 318.132812 12.75 " fill-opacity="1" fill-rule="nonzero"/></g><g clip-path="url(#2f4f7552c5)"><g clip-path="url(#acabc4dafe)"><path fill="url(#6cc50c6973)" d="M 158.765625 34.019531 L 158.765625 298.820312 L 9.160156 298.820312 L 9.160156 34.019531 Z M 158.765625 34.019531 " fill-rule="nonzero"/></g></g></svg>