<svg xmlns="http://www.w3.org/2000/svg" xmlns:xlink="http://www.w3.org/1999/xlink" width="500" zoomAndPan="magnify" viewBox="0 0 375 374.999991" height="500" preserveAspectRatio="xMidYMid meet" version="1.0"><defs><clipPath id="699b2bf5e9"><path d="M 14.300781 13.867188 L 360.800781 13.867188 L 360.800781 361 L 14.300781 361 Z M 14.300781 13.867188 " clip-rule="nonzero"/></clipPath></defs><rect x="-37.5" width="450" fill="#ffffff" y="-37.499999" height="449.999989" fill-opacity="1"/><rect x="-37.5" width="450" fill="#ffffff" y="-37.499999" height="449.999989" fill-opacity="1"/><g clip-path="url(#699b2bf5e9)"><path fill="#f4a261" d="M 149.84375 13.921875 C 116.699219 13.921875 89.601562 41.019531 89.601562 74.164062 C 89.601562 102.070312 111.84375 129.628906 133.359375 151.792969 C 154.867188 173.949219 176.53125 190.203125 178.496094 191.664062 C 181.152344 193.644531 184.335938 194.648438 187.496094 194.648438 C 190.65625 194.648438 193.816406 193.65625 196.46875 191.695312 C 196.476562 191.683594 196.488281 191.675781 196.496094 191.664062 C 198.390625 190.253906 220.121094 173.957031 241.636719 151.792969 C 263.148438 129.628906 285.390625 102.070312 285.390625 74.164062 C 285.390625 41.011719 258.292969 13.921875 225.148438 13.921875 C 207.933594 13.921875 195.914062 21.683594 187.496094 28.851562 C 179.082031 21.683594 167.058594 13.921875 149.84375 13.921875 Z M 149.84375 28.984375 C 164.894531 28.984375 175.929688 37.171875 182.171875 43.425781 C 182.523438 43.777344 182.902344 44.085938 183.3125 44.363281 C 183.726562 44.636719 184.160156 44.867188 184.617188 45.058594 C 185.070312 45.246094 185.542969 45.390625 186.027344 45.484375 C 186.511719 45.582031 187.003906 45.628906 187.496094 45.628906 C 187.992188 45.628906 188.480469 45.582031 188.964844 45.484375 C 189.449219 45.390625 189.921875 45.246094 190.378906 45.058594 C 190.835938 44.867188 191.269531 44.636719 191.679688 44.363281 C 192.089844 44.085938 192.472656 43.777344 192.820312 43.425781 C 199.0625 37.171875 210.101562 28.984375 225.148438 28.984375 C 250.121094 28.984375 270.332031 49.183594 270.332031 74.164062 C 270.332031 93.273438 251.386719 120.140625 230.839844 141.304688 C 210.300781 162.464844 189.121094 178.378906 187.496094 179.589844 C 185.953125 178.441406 164.699219 162.46875 144.152344 141.304688 C 123.609375 120.140625 104.664062 93.273438 104.664062 74.164062 C 104.664062 49.191406 124.871094 28.984375 149.84375 28.984375 Z M 40.199219 52.425781 C 25.5625 53.75 14.300781 66.113281 14.300781 80.710938 L 14.300781 234.226562 C 14.300781 247.0625 19.757812 259.300781 29.316406 267.863281 L 84.617188 317.429688 C 92.59375 324.582031 97.132812 334.773438 97.132812 345.476562 L 97.132812 352.785156 C 97.125 353.285156 97.167969 353.78125 97.257812 354.269531 C 97.351562 354.761719 97.488281 355.238281 97.675781 355.699219 C 97.859375 356.164062 98.089844 356.605469 98.363281 357.023438 C 98.636719 357.4375 98.949219 357.824219 99.300781 358.179688 C 99.652344 358.535156 100.03125 358.851562 100.445312 359.132812 C 100.859375 359.410156 101.296875 359.648438 101.757812 359.839844 C 102.21875 360.035156 102.691406 360.179688 103.179688 360.277344 C 103.671875 360.375 104.164062 360.425781 104.664062 360.425781 C 105.164062 360.425781 105.65625 360.375 106.144531 360.277344 C 106.632812 360.179688 107.109375 360.035156 107.570312 359.839844 C 108.03125 359.648438 108.46875 359.410156 108.878906 359.132812 C 109.292969 358.851562 109.675781 358.535156 110.027344 358.179688 C 110.375 357.824219 110.6875 357.4375 110.960938 357.023438 C 111.234375 356.605469 111.464844 356.164062 111.652344 355.699219 C 111.835938 355.238281 111.976562 354.761719 112.066406 354.269531 C 112.160156 353.78125 112.199219 353.285156 112.195312 352.785156 L 112.195312 345.476562 C 112.195312 330.503906 105.8125 316.222656 94.660156 306.222656 L 39.375 256.65625 C 39.375 256.652344 39.375 256.648438 39.375 256.644531 C 33 250.929688 29.359375 242.796875 29.359375 234.226562 L 29.359375 80.710938 C 29.359375 73.773438 34.496094 68.070312 41.539062 67.429688 C 48.914062 66.804688 55.261719 72.179688 55.980469 79.636719 L 63.644531 158.820312 C 63.65625 159 63.675781 159.175781 63.703125 159.351562 C 63.421875 159.59375 63.109375 159.773438 62.835938 160.027344 C 50.730469 171.359375 49.757812 190.453125 60.671875 202.945312 L 110.191406 259.613281 C 110.515625 259.992188 110.875 260.332031 111.265625 260.636719 C 111.660156 260.945312 112.078125 261.207031 112.519531 261.433594 C 112.964844 261.65625 113.425781 261.832031 113.90625 261.964844 C 114.386719 262.097656 114.871094 262.179688 115.367188 262.214844 C 115.863281 262.25 116.359375 262.238281 116.851562 262.175781 C 117.34375 262.113281 117.828125 262.003906 118.296875 261.84375 C 118.769531 261.6875 119.222656 261.484375 119.652344 261.234375 C 120.082031 260.988281 120.484375 260.699219 120.859375 260.375 C 121.234375 260.046875 121.574219 259.6875 121.875 259.292969 C 122.179688 258.898438 122.441406 258.476562 122.660156 258.03125 C 122.878906 257.585938 123.054688 257.121094 123.179688 256.640625 C 123.308594 256.160156 123.390625 255.671875 123.421875 255.175781 C 123.453125 254.679688 123.433594 254.1875 123.367188 253.695312 C 123.300781 253.203125 123.1875 252.71875 123.023438 252.25 C 122.863281 251.78125 122.65625 251.332031 122.40625 250.902344 C 122.152344 250.472656 121.863281 250.070312 121.53125 249.699219 L 72.011719 193.03125 C 66.332031 186.53125 66.816406 176.925781 73.117188 171.03125 C 79.265625 165.273438 88.636719 165.265625 94.792969 171.015625 L 163.242188 235.007812 C 173.90625 244.972656 179.964844 258.90625 179.964844 273.511719 L 179.964844 352.785156 C 179.960938 353.257812 179.996094 353.726562 180.078125 354.191406 C 180.160156 354.65625 180.285156 355.109375 180.453125 355.550781 C 180.621094 355.992188 180.828125 356.414062 181.074219 356.816406 C 181.320312 357.21875 181.601562 357.597656 181.917969 357.945312 C 182.234375 358.296875 182.582031 358.613281 182.960938 358.898438 C 183.335938 359.179688 183.738281 359.429688 184.160156 359.636719 C 184.582031 359.847656 185.023438 360.015625 185.476562 360.140625 C 185.929688 360.269531 186.394531 360.351562 186.863281 360.390625 C 187.113281 360.414062 187.363281 360.421875 187.613281 360.417969 C 188.109375 360.414062 188.597656 360.355469 189.078125 360.253906 C 189.5625 360.148438 190.03125 360 190.484375 359.804688 C 190.9375 359.605469 191.367188 359.367188 191.773438 359.089844 C 192.179688 358.808594 192.554688 358.492188 192.898438 358.136719 C 193.242188 357.78125 193.550781 357.398438 193.816406 356.984375 C 194.085938 356.570312 194.3125 356.132812 194.496094 355.671875 C 194.675781 355.214844 194.8125 354.742188 194.902344 354.257812 C 194.992188 353.769531 195.035156 353.28125 195.027344 352.785156 L 195.027344 273.511719 C 195.027344 258.914062 201.089844 244.96875 211.75 235.007812 L 280.199219 171.015625 C 286.355469 165.257812 295.726562 165.269531 301.878906 171.03125 C 308.175781 176.925781 308.65625 186.542969 302.980469 193.03125 L 253.460938 249.699219 C 253.128906 250.070312 252.839844 250.472656 252.589844 250.902344 C 252.335938 251.332031 252.132812 251.78125 251.96875 252.25 C 251.808594 252.71875 251.691406 253.203125 251.625 253.695312 C 251.558594 254.1875 251.542969 254.679688 251.574219 255.175781 C 251.605469 255.671875 251.683594 256.160156 251.8125 256.640625 C 251.941406 257.121094 252.113281 257.585938 252.332031 258.03125 C 252.554688 258.476562 252.8125 258.898438 253.117188 259.292969 C 253.417969 259.6875 253.757812 260.046875 254.132812 260.375 C 254.507812 260.699219 254.910156 260.988281 255.339844 261.234375 C 255.773438 261.484375 256.222656 261.6875 256.695312 261.84375 C 257.164062 262.003906 257.648438 262.113281 258.140625 262.175781 C 258.632812 262.238281 259.128906 262.25 259.625 262.214844 C 260.121094 262.179688 260.609375 262.097656 261.085938 261.964844 C 261.566406 261.832031 262.027344 261.65625 262.472656 261.433594 C 262.917969 261.210938 263.335938 260.945312 263.726562 260.636719 C 264.117188 260.332031 264.476562 259.992188 264.800781 259.613281 L 314.320312 202.945312 L 314.304688 202.945312 C 325.226562 190.460938 324.265625 171.363281 312.160156 160.027344 C 311.886719 159.773438 311.570312 159.609375 311.289062 159.367188 C 311.316406 159.1875 311.335938 159.003906 311.351562 158.820312 L 319.011719 79.636719 C 319.734375 72.1875 326.070312 66.816406 333.441406 67.429688 C 333.441406 67.429688 333.457031 67.429688 333.457031 67.429688 C 340.496094 68.070312 345.632812 73.773438 345.632812 80.710938 L 345.632812 234.226562 C 345.632812 242.796875 341.992188 250.945312 335.617188 256.65625 L 280.332031 306.238281 C 269.183594 316.230469 262.800781 330.507812 262.800781 345.476562 L 262.800781 352.785156 C 262.792969 353.285156 262.835938 353.78125 262.925781 354.269531 C 263.015625 354.761719 263.15625 355.238281 263.34375 355.699219 C 263.527344 356.164062 263.757812 356.605469 264.03125 357.019531 C 264.304688 357.4375 264.617188 357.824219 264.96875 358.179688 C 265.316406 358.535156 265.699219 358.851562 266.113281 359.132812 C 266.527344 359.410156 266.964844 359.648438 267.421875 359.839844 C 267.882812 360.03125 268.359375 360.179688 268.847656 360.277344 C 269.335938 360.375 269.832031 360.421875 270.332031 360.421875 C 270.828125 360.421875 271.324219 360.375 271.8125 360.277344 C 272.300781 360.179688 272.777344 360.03125 273.238281 359.839844 C 273.695312 359.648438 274.132812 359.410156 274.546875 359.132812 C 274.960938 358.851562 275.34375 358.535156 275.691406 358.179688 C 276.042969 357.824219 276.355469 357.4375 276.628906 357.019531 C 276.902344 356.605469 277.132812 356.164062 277.316406 355.699219 C 277.503906 355.238281 277.644531 354.761719 277.734375 354.269531 C 277.824219 353.78125 277.867188 353.285156 277.859375 352.785156 L 277.859375 345.476562 C 277.859375 334.773438 282.402344 324.589844 290.375 317.445312 L 345.675781 267.863281 C 355.230469 259.296875 360.695312 247.058594 360.695312 234.226562 L 360.695312 80.710938 C 360.695312 66.113281 349.429688 53.75 334.792969 52.425781 C 334.777344 52.425781 334.765625 52.425781 334.75 52.425781 C 319.238281 51.101562 305.519531 62.75 304.023438 78.179688 L 296.863281 152.277344 C 294.941406 151.910156 292.988281 151.71875 291.039062 151.71875 C 283.433594 151.714844 275.839844 154.480469 269.917969 160.011719 L 201.453125 224.007812 C 195.679688 229.402344 191.027344 235.734375 187.496094 242.625 C 183.964844 235.734375 179.3125 229.402344 173.539062 224.007812 L 105.074219 160.011719 C 99.152344 154.484375 91.554688 151.714844 83.953125 151.71875 C 82.003906 151.71875 80.054688 151.910156 78.128906 152.277344 L 70.96875 78.179688 C 69.476562 62.75 55.753906 51.101562 40.242188 52.425781 C 40.230469 52.425781 40.214844 52.425781 40.199219 52.425781 Z M 40.199219 52.425781 " fill-opacity="1" fill-rule="nonzero"/></g></svg>