<svg xmlns="http://www.w3.org/2000/svg" xmlns:xlink="http://www.w3.org/1999/xlink" width="500" zoomAndPan="magnify" viewBox="0 0 375 374.999991" height="500" preserveAspectRatio="xMidYMid meet" version="1.0"><defs><clipPath id="4b4a50dd4a"><path d="M 7.804688 114 L 188 114 L 188 235 L 7.804688 235 Z M 7.804688 114 " clip-rule="nonzero"/></clipPath><clipPath id="ceadb14dff"><path d="M 231 109 L 367.054688 109 L 367.054688 263 L 231 263 Z M 231 109 " clip-rule="nonzero"/></clipPath></defs><rect x="-37.5" width="450" fill="#ffffff" y="-37.499999" height="449.999989" fill-opacity="1"/><rect x="-37.5" width="450" fill="#ffffff" y="-37.499999" height="449.999989" fill-opacity="1"/><path fill="#f4a261" d="M 161.621094 108.433594 C 148.683594 105.558594 136.464844 104.121094 125.683594 104.121094 C 114.183594 104.121094 148.683594 58.117188 167.371094 71.058594 C 188.9375 86.152344 206.90625 69.621094 214.8125 69.621094 C 243.5625 69.621094 259.375 132.152344 259.375 170.96875 C 258.65625 211.21875 237.09375 56.679688 161.621094 108.433594 Z M 214.8125 41.585938 C 214.8125 5.648438 160.902344 5.648438 160.902344 41.585938 C 160.183594 77.527344 214.8125 77.527344 214.8125 41.585938 Z M 214.8125 41.585938 " fill-opacity="1" fill-rule="nonzero"/><g clip-path="url(#4b4a50dd4a)"><path fill="#f4a261" d="M 73.210938 234.9375 C 55.242188 219.84375 49.492188 199 49.492188 193.25 C 49.492188 177.4375 69.617188 178.875 69.617188 152.277344 C 69.617188 145.808594 64.585938 134.308594 76.085938 126.402344 C 117.777344 99.089844 187.5 126.402344 187.5 127.839844 C 187.5 129.277344 67.460938 121.371094 89.746094 197.5625 C 82.554688 211.21875 76.804688 223.4375 73.210938 234.9375 Z M 61.710938 152.996094 C 61.710938 117.058594 7.804688 117.058594 7.804688 152.996094 C 7.804688 188.21875 61.710938 188.21875 61.710938 152.996094 Z M 61.710938 152.996094 " fill-opacity="1" fill-rule="nonzero"/></g><path fill="#f4a261" d="M 183.1875 320.472656 C 167.371094 330.535156 132.871094 338.445312 126.402344 320.472656 C 112.027344 280.941406 78.960938 316.160156 78.960938 266.566406 C 78.960938 224.15625 117.058594 175.28125 117.058594 179.59375 C 117.058594 181.03125 73.210938 291.003906 152.996094 293.160156 C 163.058594 305.378906 173.125 314.003906 183.1875 320.472656 Z M 66.023438 331.972656 C 66.023438 368.632812 119.933594 366.476562 119.933594 331.972656 C 119.933594 297.472656 66.023438 295.316406 66.023438 331.972656 Z M 66.023438 331.972656 " fill-opacity="1" fill-rule="nonzero"/><path fill="#f4a261" d="M 233.5 329.097656 C 186.0625 329.097656 140.777344 262.253906 143.652344 262.253906 C 144.371094 262.253906 237.8125 336.289062 263.691406 262.972656 C 301.785156 246.441406 301.066406 232.0625 301.066406 259.378906 C 301.066406 273.035156 296.753906 296.035156 281.660156 296.753906 C 247.15625 298.191406 255.0625 329.097656 233.5 329.097656 Z M 255.0625 331.972656 C 255.0625 366.476562 308.972656 369.351562 308.972656 331.972656 C 308.972656 296.035156 255.0625 296.753906 255.0625 331.972656 Z M 255.0625 331.972656 " fill-opacity="1" fill-rule="nonzero"/><g clip-path="url(#ceadb14dff)"><path fill="#f4a261" d="M 323.347656 191.8125 C 323.347656 230.625 231.34375 267.285156 231.34375 262.253906 C 231.34375 261.535156 331.972656 196.84375 269.441406 148.683594 C 268.003906 133.589844 265.128906 119.933594 261.53125 109.152344 C 276.628906 110.589844 291.003906 116.339844 302.503906 126.402344 C 311.847656 135.027344 306.097656 143.652344 306.097656 152.277344 C 305.378906 176 323.347656 178.15625 323.347656 191.8125 Z M 367.195312 152.996094 C 367.195312 117.058594 313.285156 117.058594 313.285156 152.996094 C 313.285156 188.21875 367.195312 188.21875 367.195312 152.996094 Z M 367.195312 152.996094 " fill-opacity="1" fill-rule="nonzero"/></g></svg>