<svg xmlns="http://www.w3.org/2000/svg" xmlns:xlink="http://www.w3.org/1999/xlink" width="500" zoomAndPan="magnify" viewBox="0 0 375 374.999991" height="500" preserveAspectRatio="xMidYMid meet" version="1.0"><defs><g/></defs><g fill="#f4a261" fill-opacity="1"><g transform="translate(73.244489, 222.190471)"><g><path d="M 27.28125 48.140625 C 25.957031 52.722656 23.816406 55.976562 20.859375 57.90625 C 17.898438 59.832031 14.828125 60.832031 11.640625 60.90625 C 8.460938 60.976562 5.800781 60.421875 3.65625 59.234375 C 1.507812 58.054688 0.4375 56.726562 0.4375 55.25 C 1.476562 42.675781 2.703125 28.695312 4.109375 13.3125 C 5.515625 -2.070312 6.914062 -18.046875 8.3125 -34.609375 C 9.71875 -51.171875 10.972656 -67.476562 12.078125 -83.53125 C 13.191406 -99.582031 13.929688 -114.59375 14.296875 -128.5625 C 14.671875 -142.539062 14.488281 -154.671875 13.75 -164.953125 C 13.007812 -175.234375 11.457031 -182.738281 9.09375 -187.46875 C 7.914062 -189.988281 7.988281 -191.988281 9.3125 -193.46875 C 10.644531 -194.945312 12.601562 -196.054688 15.1875 -196.796875 C 17.78125 -197.535156 20.519531 -197.828125 23.40625 -197.671875 C 26.289062 -197.523438 28.617188 -197.007812 30.390625 -196.125 C 33.492188 -194.644531 36.082031 -191.09375 38.15625 -185.46875 C 40.226562 -179.851562 41.851562 -173.050781 43.03125 -165.0625 C 44.21875 -157.070312 44.847656 -148.75 44.921875 -140.09375 C 44.992188 -131.445312 44.441406 -123.425781 43.265625 -116.03125 C 47.992188 -132.300781 52.207031 -145.535156 55.90625 -155.734375 C 59.601562 -165.941406 63.113281 -173.859375 66.4375 -179.484375 C 69.769531 -185.109375 73.023438 -189.140625 76.203125 -191.578125 C 79.390625 -194.015625 82.753906 -195.53125 86.296875 -196.125 C 93.253906 -197.3125 99.097656 -195.90625 103.828125 -191.90625 C 108.566406 -187.914062 112.191406 -182.109375 114.703125 -174.484375 C 117.210938 -166.867188 118.648438 -158.253906 119.015625 -148.640625 C 119.390625 -139.023438 118.6875 -129.148438 116.90625 -119.015625 C 115.132812 -108.890625 112.398438 -99.316406 108.703125 -90.296875 C 105.015625 -81.273438 100.320312 -73.546875 94.625 -67.109375 C 88.925781 -60.679688 82.304688 -56.359375 74.765625 -54.140625 C 67.222656 -51.921875 58.789062 -52.582031 49.46875 -56.125 C 48.582031 -56.425781 48.066406 -57.238281 47.921875 -58.5625 C 47.773438 -59.894531 48.035156 -60.96875 48.703125 -61.78125 C 49.367188 -62.601562 50.363281 -62.347656 51.6875 -61.015625 C 54.945312 -57.910156 58.3125 -57.425781 61.78125 -59.5625 C 65.257812 -61.707031 68.695312 -65.664062 72.09375 -71.4375 C 75.5 -77.207031 78.71875 -84.160156 81.75 -92.296875 C 84.78125 -100.429688 87.476562 -109.046875 89.84375 -118.140625 C 92.21875 -127.234375 94.066406 -136.179688 95.390625 -144.984375 C 96.722656 -153.785156 97.460938 -161.695312 97.609375 -168.71875 C 97.765625 -175.75 97.140625 -181.257812 95.734375 -185.25 C 94.328125 -189.25 92 -191.023438 88.75 -190.578125 C 83.570312 -189.691406 78.765625 -186.101562 74.328125 -179.8125 C 69.890625 -173.53125 65.785156 -165.320312 62.015625 -155.1875 C 58.242188 -145.0625 54.800781 -133.710938 51.6875 -121.140625 C 48.582031 -108.566406 45.769531 -95.398438 43.25 -81.640625 C 40.738281 -67.890625 38.519531 -54.285156 36.59375 -40.828125 C 34.675781 -27.367188 33.085938 -14.722656 31.828125 -2.890625 C 30.578125 8.941406 29.582031 19.296875 28.84375 28.171875 C 28.101562 37.046875 27.582031 43.703125 27.28125 48.140625 Z M 27.28125 48.140625 "/></g></g></g><g fill="#f4a261" fill-opacity="1"><g transform="translate(166.920726, 295.546013)"><g><path d="M 77.203125 -197.671875 C 91.554688 -199.003906 103.351562 -198.226562 112.59375 -195.34375 C 121.832031 -192.457031 128.929688 -188.09375 133.890625 -182.25 C 138.847656 -176.414062 141.878906 -169.6875 142.984375 -162.0625 C 144.097656 -154.445312 143.691406 -146.535156 141.765625 -138.328125 C 139.847656 -130.117188 136.671875 -122.242188 132.234375 -114.703125 C 127.796875 -107.160156 122.46875 -100.503906 116.25 -94.734375 C 110.039062 -88.960938 103.238281 -84.820312 95.84375 -82.3125 C 104.863281 -84.082031 112.070312 -83.632812 117.46875 -80.96875 C 122.875 -78.3125 126.644531 -73.988281 128.78125 -68 C 130.925781 -62.007812 131.738281 -54.984375 131.21875 -46.921875 C 130.707031 -38.859375 129.082031 -30.390625 126.34375 -21.515625 C 123.613281 -12.640625 119.992188 -3.84375 115.484375 4.875 C 110.972656 13.601562 105.796875 21.628906 99.953125 28.953125 C 94.109375 36.273438 87.894531 42.265625 81.3125 46.921875 C 74.726562 51.578125 67.960938 54.351562 61.015625 55.25 C 55.984375 55.832031 51.546875 54.753906 47.703125 52.015625 C 43.859375 49.285156 40.9375 45.367188 38.9375 40.265625 C 36.9375 35.160156 36.046875 29.460938 36.265625 23.171875 C 36.492188 16.890625 38.007812 10.53125 40.8125 4.09375 C 43.625 -2.332031 48.023438 -8.390625 54.015625 -14.078125 C 60.015625 -19.773438 67.816406 -24.472656 77.421875 -28.171875 C 80.234375 -29.210938 82.269531 -29.320312 83.53125 -28.5 C 84.789062 -27.6875 85.085938 -26.578125 84.421875 -25.171875 C 83.753906 -23.773438 81.941406 -22.707031 78.984375 -21.96875 C 70.703125 -20.039062 63.859375 -16.707031 58.453125 -11.96875 C 53.054688 -7.238281 48.953125 -1.84375 46.140625 4.21875 C 43.335938 10.28125 41.710938 16.34375 41.265625 22.40625 C 40.816406 28.46875 41.40625 33.863281 43.03125 38.59375 C 44.664062 43.332031 47.21875 46.773438 50.6875 48.921875 C 54.164062 51.066406 58.347656 51.101562 63.234375 49.03125 C 68.109375 46.957031 72.613281 43.296875 76.75 38.046875 C 80.894531 32.796875 84.519531 26.472656 87.625 19.078125 C 90.738281 11.679688 93.144531 3.878906 94.84375 -4.328125 C 96.539062 -12.535156 97.460938 -20.671875 97.609375 -28.734375 C 97.765625 -36.796875 96.953125 -44.15625 95.171875 -50.8125 C 93.398438 -57.46875 90.515625 -62.898438 86.515625 -67.109375 C 82.523438 -71.328125 77.273438 -73.691406 70.765625 -74.203125 C 64.265625 -74.722656 56.351562 -72.765625 47.03125 -68.328125 C 45.257812 -57.972656 43.410156 -47.617188 41.484375 -37.265625 C 39.566406 -26.921875 37.71875 -17.160156 35.9375 -7.984375 C 34.164062 1.179688 32.578125 9.164062 31.171875 15.96875 C 29.765625 22.769531 28.691406 27.875 27.953125 31.28125 C 27.503906 32.90625 26.023438 34.640625 23.515625 36.484375 C 21.003906 38.335938 18.117188 39.742188 14.859375 40.703125 C 11.609375 41.671875 8.613281 41.597656 5.875 40.484375 C 3.144531 39.378906 1.410156 36.609375 0.671875 32.171875 L 36.15625 -176.15625 C 36.457031 -177.78125 38.085938 -179.703125 41.046875 -181.921875 C 44.003906 -184.140625 47.40625 -186.207031 51.25 -188.125 C 55.09375 -190.050781 58.601562 -191.492188 61.78125 -192.453125 C 64.96875 -193.421875 66.851562 -193.460938 67.4375 -192.578125 L 47.921875 -73.875 C 53.835938 -76.539062 59.492188 -78.5 64.890625 -79.75 C 70.285156 -81.007812 75.425781 -81.640625 80.3125 -81.640625 C 93.332031 -86.671875 104.164062 -93.175781 112.8125 -101.15625 C 121.46875 -109.144531 127.898438 -117.757812 132.109375 -127 C 136.328125 -136.25 138.328125 -145.273438 138.109375 -154.078125 C 137.890625 -162.878906 135.375 -170.644531 130.5625 -177.375 C 125.757812 -184.101562 118.695312 -188.945312 109.375 -191.90625 C 100.0625 -194.863281 88.453125 -195.015625 74.546875 -192.359375 C 61.828125 -189.984375 51.210938 -185.800781 42.703125 -179.8125 C 34.203125 -173.820312 27.4375 -166.867188 22.40625 -158.953125 C 17.375 -151.046875 13.75 -142.988281 11.53125 -134.78125 C 9.3125 -126.570312 8.164062 -118.953125 8.09375 -111.921875 C 8.019531 -104.898438 8.722656 -99.242188 10.203125 -94.953125 C 11.085938 -92.878906 11.125 -91.617188 10.3125 -91.171875 C 9.5 -90.734375 8.535156 -90.847656 7.421875 -91.515625 C 6.316406 -92.179688 5.617188 -92.957031 5.328125 -93.84375 C 4.140625 -97.394531 3.4375 -102.164062 3.21875 -108.15625 C 3 -114.144531 3.515625 -120.765625 4.765625 -128.015625 C 6.023438 -135.265625 8.242188 -142.582031 11.421875 -149.96875 C 14.609375 -157.363281 19.046875 -164.351562 24.734375 -170.9375 C 30.429688 -177.519531 37.566406 -183.175781 46.140625 -187.90625 C 54.722656 -192.644531 65.078125 -195.898438 77.203125 -197.671875 Z M 77.203125 -197.671875 "/></g></g></g><g fill="#f4a261" fill-opacity="1"><g transform="translate(105.547372, 285.037968)"><g><path d="M 51.234375 8.84375 C 49.984375 8.84375 49.191406 8.265625 48.859375 7.109375 L 43.875 -10.21875 C 42.125 -9.21875 40.332031 -8.425781 38.5 -7.84375 C 36.675781 -7.269531 34.769531 -6.941406 32.78125 -6.859375 C 25.71875 -6.609375 20.085938 -7.894531 15.890625 -10.71875 C 11.691406 -13.539062 9.257812 -17.28125 8.59375 -21.9375 C 8.101562 -26.425781 8.875 -30.332031 10.90625 -33.65625 C 12.9375 -36.976562 15.820312 -40.007812 19.5625 -42.75 C 23.300781 -45.488281 27.375 -48.273438 31.78125 -51.109375 C 30.457031 -55.921875 29.441406 -59.71875 28.734375 -62.5 C 28.023438 -65.289062 27.628906 -67.515625 27.546875 -69.171875 C 27.460938 -70.835938 27.585938 -72.289062 27.921875 -73.53125 C 29.003906 -77.4375 30.707031 -80.425781 33.03125 -82.5 C 35.351562 -84.582031 37.945312 -85.851562 40.8125 -86.3125 C 43.6875 -86.769531 46.472656 -86.601562 49.171875 -85.8125 C 51.867188 -85.019531 54.085938 -83.707031 55.828125 -81.875 C 57.578125 -80.050781 58.453125 -77.894531 58.453125 -75.40625 C 58.535156 -71.414062 57.660156 -67.90625 55.828125 -64.875 C 54.003906 -61.84375 51.515625 -59.078125 48.359375 -56.578125 C 45.203125 -54.085938 41.628906 -51.554688 37.640625 -48.984375 L 40.390625 -39.515625 C 41.296875 -36.609375 42.269531 -33.382812 43.3125 -29.84375 C 44.351562 -26.3125 45.492188 -22.472656 46.734375 -18.328125 C 49.898438 -21.066406 52.6875 -24.160156 55.09375 -27.609375 C 57.5 -31.054688 59.535156 -34.066406 61.203125 -36.640625 C 61.867188 -37.640625 62.445312 -38.535156 62.9375 -39.328125 C 63.4375 -40.117188 63.894531 -40.757812 64.3125 -41.25 C 64.726562 -41.832031 65.351562 -42.125 66.1875 -42.125 C 66.851562 -42.125 67.429688 -41.875 67.921875 -41.375 C 68.421875 -40.882812 68.671875 -40.304688 68.671875 -39.640625 C 68.671875 -39.140625 68.460938 -38.597656 68.046875 -38.015625 C 67.804688 -37.679688 67.457031 -37.160156 67 -36.453125 C 66.539062 -35.742188 66.019531 -34.9375 65.4375 -34.03125 C 64.269531 -32.195312 62.832031 -30.054688 61.125 -27.609375 C 59.425781 -25.160156 57.492188 -22.664062 55.328125 -20.125 C 53.171875 -17.59375 50.804688 -15.289062 48.234375 -13.21875 L 53.59375 5.609375 C 53.84375 6.359375 53.738281 7.082031 53.28125 7.78125 C 52.820312 8.488281 52.140625 8.84375 51.234375 8.84375 Z M 13.578125 -22.4375 C 13.992188 -19.113281 15.738281 -16.453125 18.8125 -14.453125 C 21.894531 -12.460938 26.46875 -11.59375 32.53125 -11.84375 C 34.28125 -11.925781 35.984375 -12.253906 37.640625 -12.828125 C 39.304688 -13.410156 40.882812 -14.160156 42.375 -15.078125 C 41.050781 -19.648438 39.828125 -23.847656 38.703125 -27.671875 C 37.578125 -31.492188 36.554688 -34.941406 35.640625 -38.015625 L 33.28125 -46.109375 C 29.957031 -44.035156 26.695312 -41.832031 23.5 -39.5 C 20.300781 -37.175781 17.742188 -34.625 15.828125 -31.84375 C 13.921875 -29.0625 13.171875 -25.925781 13.578125 -22.4375 Z M 32.65625 -72.296875 C 32.488281 -71.460938 32.445312 -70.421875 32.53125 -69.171875 C 32.613281 -67.929688 32.945312 -66.144531 33.53125 -63.8125 C 34.113281 -61.488281 34.984375 -58.207031 36.140625 -53.96875 C 39.054688 -55.800781 41.84375 -57.796875 44.5 -59.953125 C 47.15625 -62.109375 49.332031 -64.453125 51.03125 -66.984375 C 52.738281 -69.523438 53.550781 -72.332031 53.46875 -75.40625 C 53.46875 -77.320312 52.570312 -78.898438 50.78125 -80.140625 C 49 -81.390625 46.878906 -82.054688 44.421875 -82.140625 C 41.972656 -82.222656 39.648438 -81.515625 37.453125 -80.015625 C 35.253906 -78.523438 33.65625 -75.953125 32.65625 -72.296875 Z M 32.65625 -72.296875 "/></g></g></g></svg>